<svg width="17" height="16" viewBox="0 0 17 16" fill="none" xmlns="http://www.w3.org/2000/svg">
<path d="M15.4143 2.3H0.714258C0.414258 2.3 0.114258 2.5 0.114258 2.8C0.114258 3.1 0.414258 3.4 0.714258 3.4H2.41426V15.4C2.41426 15.7 2.71426 16 3.01426 16H13.2143C13.5143 16 13.8143 15.7 13.8143 15.4V3.4H15.5143C15.8143 3.4 16.1143 3.1 16.1143 2.8C16.1143 2.5 15.7143 2.3 15.4143 2.3ZM12.6143 14.8H3.51426V3.4H12.6143V14.8Z" fill="black"/>
<path d="M6.31426 1.2H9.71426C10.0143 1.2 10.3143 0.9 10.3143 0.6C10.3143 0.3 10.1143 0 9.81426 0H6.31426C6.01426 0 5.81426 0.3 5.81426 0.6C5.81426 0.9 6.01426 1.2 6.31426 1.2Z" fill="black"/>
<path d="M6.31426 12C6.61426 12 6.91426 11.7 6.91426 11.4V5.7C6.91426 5.4 6.61426 5.1 6.31426 5.1C6.01426 5.1 5.71426 5.4 5.71426 5.7V11.4C5.81426 11.7 6.01426 12 6.31426 12Z" fill="black"/>
<path d="M9.81426 12C10.1143 12 10.4143 11.7 10.4143 11.4V5.7C10.4143 5.4 10.1143 5.1 9.81426 5.1C9.51426 5.1 9.21426 5.5 9.21426 5.7V11.4C9.21426 11.7 9.41426 12 9.81426 12Z" fill="black"/>
</svg>
